<?xml version="1.0" standalone="no"?>
<!DOCTYPE svg PUBLIC "-//W3C//DTD SVG 20010904//EN"
 "http://www.w3.org/TR/2001/REC-SVG-20010904/DTD/svg10.dtd">
<svg version="1.0" xmlns="http://www.w3.org/2000/svg"
 width="1600.000000pt" height="1600.000000pt" viewBox="0 0 1600.000000 1600.000000"
 preserveAspectRatio="xMidYMid meet">

<g transform="translate(0.000000,1600.000000) scale(0.100000,-0.100000)"
fill="#000000" stroke="none">
<path d="M7745 13344 c-532 -25 -1028 -113 -1530 -272 l-180 -57 70 -7 c109
-11 128 -17 155 -51 25 -31 25 -32 31 -312 4 -154 7 -386 8 -516 l1 -237 35
-31 c32 -27 43 -31 96 -31 66 0 110 18 129 54 7 14 13 192 19 531 4 281 11
517 15 526 4 9 21 27 39 40 29 21 44 24 145 27 105 4 116 2 147 -20 19 -12 39
-35 45 -49 8 -18 12 -194 13 -530 2 -383 6 -509 15 -526 16 -29 82 -63 122
-63 36 0 111 32 130 54 10 12 13 129 14 533 1 564 -1 547 59 583 25 16 51 20
120 20 102 0 141 -14 174 -63 l22 -32 5 -1020 c5 -808 3 -1025 -7 -1045 -7
-15 -40 -39 -82 -60 -168 -84 -208 -113 -314 -220 -82 -82 -120 -130 -167
-211 -131 -222 -180 -476 -140 -722 21 -129 40 -185 107 -322 130 -265 389
-473 689 -552 40 -11 -779 -28 -965 -21 -148 6 -193 27 -229 108 l-26 58 0
950 0 951 -22 15 c-12 9 -35 16 -51 16 -50 0 -183 39 -249 72 -63 33 -157 116
-217 196 -31 40 -66 119 -76 172 -3 14 -8 386 -12 828 l-6 803 21 29 22 29
-66 -25 c-559 -210 -1186 -591 -1689 -1027 -221 -191 -548 -534 -736 -772 -94
-119 -122 -158 -267 -370 -296 -433 -551 -954 -713 -1455 -38 -118 -62 -176
-85 -205 -75 -95 -144 -272 -144 -372 0 -29 -4 -53 -8 -53 -5 0 -35 9 -68 21
-32 11 -75 25 -94 32 -22 7 -111 11 -245 11 -202 0 -213 -1 -300 -28 -111 -35
-213 -85 -285 -141 -69 -53 -203 -194 -253 -265 -55 -78 -143 -247 -157 -300
-6 -25 -18 -63 -27 -85 -11 -29 -17 -89 -20 -215 -4 -148 -2 -190 15 -277 24
-119 78 -252 140 -343 58 -85 172 -202 247 -252 33 -23 71 -51 85 -64 14 -13
57 -37 95 -54 39 -17 78 -35 87 -40 35 -20 197 -73 278 -92 73 -17 109 -19
265 -14 99 3 195 6 214 8 l35 3 23 -135 c148 -854 490 -1673 991 -2377 661
-928 1547 -1630 2577 -2042 1077 -432 2238 -531 3380 -290 617 130 1239 376
1775 702 262 160 560 374 780 563 373 319 784 784 1070 1214 247 370 476 821
625 1235 159 441 271 920 320 1373 8 68 19 80 30 30 4 -18 11 -39 15 -48 4 -8
12 -26 18 -40 48 -116 61 -138 96 -159 20 -13 53 -23 74 -24 32 0 170 0 394 1
70 0 121 28 137 74 23 66 14 110 -63 290 -40 96 -77 185 -81 198 -4 14 -37 90
-72 170 -36 80 -71 165 -80 189 -13 39 -36 92 -94 217 -10 23 -19 48 -19 56 0
8 -11 36 -24 64 -60 124 -96 206 -102 231 -4 16 -19 55 -34 88 -15 33 -33 78
-40 100 -7 22 -18 47 -25 55 -7 8 -20 38 -30 65 -53 147 -92 206 -147 219 -23
5 -28 13 -38 64 -139 709 -462 1473 -888 2102 -237 350 -405 554 -707 856
-216 216 -335 323 -535 480 -897 702 -1971 1120 -3115 1214 -133 11 -566 20
-690 14z m1329 -349 c124 -24 219 -60 276 -105 72 -57 69 12 72 -1370 2 -679
3 -1550 3 -1935 l0 -700 -30 -44 c-16 -24 -48 -53 -70 -65 -39 -21 -50 -21
-553 -24 -463 -2 -576 3 -470 21 61 10 212 80 303 141 49 33 121 91 158 130
237 242 342 546 307 886 -6 63 -18 135 -27 160 -45 129 -87 232 -104 254 -10
13 -19 28 -19 32 0 17 -88 124 -162 197 -80 80 -194 160 -305 216 -34 17 -67
40 -73 51 -7 13 -10 324 -10 971 1 946 1 952 22 1001 33 78 120 125 323 178
89 23 254 25 359 5z m751 -992 c177 -70 536 -254 685 -350 368 -239 606 -427
856 -677 238 -239 359 -378 521 -602 445 -612 700 -1191 852 -1929 37 -179 65
-360 81 -511 l11 -110 -66 -165 c-36 -90 -73 -175 -82 -189 -9 -13 -22 -43
-28 -65 -11 -36 -13 -21 -19 140 -14 340 -42 594 -97 865 -183 901 -627 1728
-1279 2380 -286 286 -515 470 -835 671 -162 101 -184 114 -380 212 -153 77
-243 117 -417 187 l-58 24 0 108 0 107 83 -30 c45 -17 123 -46 172 -66z
m-4055 -267 l0 -114 -77 -43 c-80 -43 -287 -172 -358 -221 -22 -16 -65 -46
-95 -67 -259 -182 -593 -491 -832 -771 -250 -294 -475 -637 -646 -987 -45 -92
-80 -153 -89 -153 -8 0 -35 6 -61 14 -26 8 -64 17 -84 21 -22 3 -38 12 -38 19
0 20 180 376 258 511 124 213 366 553 513 720 341 388 633 645 1026 905 59 40
119 80 133 89 14 10 77 46 140 81 63 35 133 74 155 87 22 12 43 23 48 23 4 0
7 -51 7 -114z m-2390 -2419 c25 -8 63 -18 85 -22 50 -8 214 -54 237 -66 10 -5
25 -9 33 -9 8 0 23 -4 33 -9 31 -16 211 -61 244 -61 18 0 51 7 73 15 52 18 90
19 128 0 47 -22 59 -55 41 -109 -15 -44 -16 -44 -72 -50 -90 -11 -112 -17
-112 -31 0 -7 -3 -15 -7 -17 -15 -6 -51 -85 -72 -158 -12 -41 -28 -97 -36
-125 -41 -140 -48 -208 -55 -535 -4 -200 -11 -338 -18 -360 -7 -19 -12 -50
-12 -67 0 -59 30 -39 120 78 47 60 102 127 123 147 22 20 42 45 46 54 10 26
139 166 296 320 77 76 160 158 185 182 57 57 221 196 230 196 4 0 20 11 36 25
41 35 58 49 76 60 9 6 67 45 130 88 62 42 119 77 126 77 6 0 12 5 12 10 0 6 7
10 15 10 8 0 15 4 15 8 0 4 48 32 108 61 59 30 118 60 132 68 23 13 65 33 225
108 95 44 313 95 408 95 32 0 66 4 76 9 22 12 142 18 159 8 15 -10 16 -61 2
-88 -8 -15 -21 -19 -58 -19 -61 0 -211 -19 -237 -30 -11 -5 -60 -19 -110 -31
-108 -26 -212 -59 -280 -89 -27 -13 -70 -31 -95 -42 -25 -10 -54 -24 -65 -30
-176 -99 -215 -126 -264 -179 -30 -33 -60 -59 -67 -59 -8 0 -14 -5 -14 -11 0
-6 -16 -27 -35 -46 -19 -19 -35 -39 -35 -45 0 -5 -15 -27 -32 -48 -18 -21 -42
-56 -53 -77 -11 -21 -22 -40 -26 -43 -12 -11 -119 -197 -119 -208 0 -7 -4 -12
-10 -12 -5 0 -10 -6 -10 -13 0 -7 -8 -22 -17 -33 -21 -22 -53 -89 -53 -109 0
-7 -10 -26 -22 -42 -13 -15 -28 -37 -34 -48 -61 -112 -201 -410 -244 -520 -13
-33 -32 -79 -43 -103 -11 -24 -17 -46 -14 -49 4 -3 0 -18 -8 -33 -20 -40 -42
-108 -50 -155 -4 -22 -9 -47 -12 -55 -10 -30 -4 -179 8 -202 17 -32 28 -38 72
-38 57 0 154 82 204 172 12 22 28 47 35 56 8 9 19 29 26 44 26 63 73 93 110
69 11 -6 11 -17 2 -49 -6 -23 -14 -44 -19 -46 -5 -3 -12 -17 -15 -32 -4 -14
-11 -31 -16 -37 -6 -7 -26 -37 -46 -67 -98 -148 -221 -232 -344 -234 -54 -1
-77 5 -132 31 -63 29 -72 38 -122 115 -57 89 -76 155 -76 269 0 61 28 228 41
245 5 6 25 53 45 105 20 52 41 108 47 124 7 17 24 50 38 75 14 25 39 70 55
100 16 30 31 57 34 60 11 11 47 66 52 81 3 8 33 56 67 107 63 94 75 132 43
132 -17 0 -115 -95 -190 -186 -18 -21 -39 -46 -47 -55 -8 -9 -15 -19 -15 -23
0 -8 -13 -25 -57 -74 -18 -19 -33 -38 -33 -43 0 -4 -16 -26 -35 -49 -19 -23
-35 -45 -35 -50 0 -4 -13 -22 -30 -40 -16 -18 -30 -38 -30 -46 0 -8 -4 -14
-10 -14 -5 0 -10 -4 -10 -10 0 -5 -9 -20 -20 -32 -43 -49 -50 -58 -50 -68 0
-6 -7 -13 -15 -16 -8 -4 -15 -11 -15 -17 0 -6 -7 -19 -17 -29 -9 -10 -21 -27
-27 -37 -12 -20 -76 -110 -130 -181 -19 -25 -35 -51 -35 -57 -1 -7 -5 -13 -10
-13 -5 0 -24 -24 -42 -52 -19 -29 -53 -78 -76 -110 -24 -31 -43 -60 -43 -66 0
-5 -11 -21 -25 -36 -14 -15 -25 -31 -25 -37 0 -5 -4 -9 -10 -9 -5 0 -10 -6
-10 -12 -1 -7 -21 -35 -46 -62 -50 -54 -59 -55 -97 -4 -14 18 -17 32 -12 45 5
10 10 25 11 33 2 8 16 51 32 95 66 178 63 159 68 475 3 162 9 304 14 315 5 11
11 72 15 135 3 63 9 149 14 190 26 221 26 202 5 198 -10 -2 -29 -23 -42 -48
-13 -25 -30 -52 -38 -61 -8 -8 -14 -21 -14 -27 0 -9 -58 -132 -127 -267 -5
-11 -25 -51 -44 -90 -19 -38 -37 -71 -41 -73 -5 -2 -8 -12 -8 -23 0 -10 -4
-19 -10 -19 -5 0 -10 -6 -10 -13 0 -8 -13 -41 -30 -75 -16 -34 -30 -65 -30
-69 0 -5 -72 -157 -128 -268 -54 -109 -154 -214 -282 -297 -83 -54 -237 -123
-317 -143 -10 -3 -52 -14 -93 -26 -59 -17 -113 -22 -255 -26 -211 -5 -317 9
-410 57 -21 11 -45 20 -51 20 -18 0 -154 69 -194 99 -19 14 -55 40 -80 56 -74
48 -280 282 -280 317 0 5 -14 38 -31 74 -18 36 -29 73 -26 84 3 11 2 20 -3 20
-4 0 -14 39 -20 88 -17 120 -7 293 24 398 24 80 90 220 123 258 10 12 23 32
30 46 58 124 305 325 449 365 16 5 31 9 34 10 125 38 230 48 348 35 97 -11
232 -51 253 -76 6 -8 16 -14 22 -14 5 0 36 -18 69 -41 90 -61 93 -58 95 96 2
139 9 179 56 295 61 149 167 251 347 332 67 30 143 58 190 68 19 5 46 11 60
15 14 3 42 8 63 10 21 2 42 6 45 10 12 12 234 -2 282 -18z m2705 -793 c39 -8
77 -16 85 -17 26 -6 180 -74 220 -98 8 -5 35 -19 60 -31 52 -26 213 -185 259
-255 17 -26 34 -52 39 -58 4 -5 11 -17 15 -25 4 -8 11 -22 16 -30 26 -40 73
-189 82 -261 16 -116 8 -315 -14 -358 -9 -19 -17 -44 -17 -55 0 -20 -93 -213
-124 -258 -37 -52 -162 -171 -226 -214 -39 -26 -70 -50 -70 -55 0 -5 -12 -12
-27 -15 -16 -4 -57 -22 -93 -39 -63 -31 -175 -57 -300 -70 -54 -5 -198 6 -295
24 -67 13 -215 79 -295 132 -72 48 -250 222 -250 245 0 8 -6 17 -13 20 -12 4
-63 103 -87 169 -5 11 -15 36 -23 55 -43 100 -49 419 -9 531 11 31 25 64 31
75 6 10 21 44 34 74 27 61 62 117 108 170 16 19 33 40 37 45 29 42 260 215
286 215 8 0 38 11 67 24 50 22 80 34 104 43 6 1 44 9 85 17 101 18 230 18 315
0z m2110 -47 c74 -15 231 -82 254 -110 7 -9 19 -17 27 -17 18 0 110 -115 139
-175 43 -88 58 -168 52 -285 -5 -127 -38 -227 -100 -308 -42 -55 -127 -132
-146 -132 -6 0 -11 -4 -11 -8 0 -9 -55 -35 -99 -47 -13 -4 -39 -16 -58 -27
-29 -18 -34 -25 -28 -47 3 -14 21 -42 40 -61 92 -97 137 -145 143 -156 4 -7
48 -56 98 -111 136 -147 224 -250 224 -262 0 -8 -73 -11 -234 -11 l-234 0 -53
61 c-30 34 -63 71 -75 83 -39 40 -287 321 -300 341 -7 11 -37 46 -67 78 l-54
57 -72 0 c-61 0 -71 -2 -71 -17 0 -10 -1 -145 -1 -300 0 -219 -3 -284 -14
-293 -8 -7 -78 -10 -206 -8 l-194 3 -8 60 c-10 79 -4 1676 6 1693 12 18 944
17 1042 -1z m2129 7 c14 -5 16 -29 16 -164 0 -123 -3 -160 -14 -169 -10 -9
-135 -12 -453 -12 -328 0 -445 -3 -463 -12 -25 -12 -25 -14 -28 -165 -2 -137
-1 -153 16 -170 18 -18 43 -19 432 -21 228 -1 417 -4 422 -7 13 -9 10 -298 -4
-312 -9 -9 -116 -12 -420 -12 -406 0 -407 0 -428 -22 -18 -20 -20 -35 -20
-168 0 -100 4 -150 12 -158 9 -9 127 -12 467 -12 270 0 462 -4 471 -10 12 -7
15 -39 17 -167 1 -99 -2 -162 -9 -170 -15 -18 -1348 -19 -1366 -1 -18 18 -17
1744 1 1751 18 8 1332 8 1351 1z m704 -41 c115 -125 172 -191 172 -201 0 -6
20 -32 45 -59 24 -26 130 -149 235 -273 105 -124 202 -238 215 -254 14 -16 25
-30 25 -33 0 -2 13 -18 30 -36 16 -17 50 -56 76 -84 25 -29 54 -53 64 -53 26
0 29 53 30 565 0 351 3 461 13 467 21 13 381 10 395 -4 9 -9 12 -211 11 -853
-1 -462 -4 -853 -8 -870 l-6 -30 -164 -3 -163 -3 -46 50 c-26 27 -74 81 -107
121 -98 117 -103 123 -144 170 -140 161 -194 220 -202 220 -5 0 -9 5 -9 11 0
7 -30 46 -67 87 -38 41 -105 118 -151 171 -154 178 -183 201 -210 168 -7 -8
-11 -172 -11 -495 -1 -266 -3 -488 -6 -493 -4 -5 -92 -9 -199 -9 l-193 0 -7
46 c-8 60 -8 1637 0 1687 l7 37 165 0 166 0 44 -47z m2683 -10 c13 -32 24 -60
25 -63 0 -3 10 -25 21 -50 11 -25 30 -70 43 -100 12 -30 31 -75 43 -100 34
-77 45 -104 53 -130 3 -14 21 -56 38 -95 18 -38 54 -122 80 -185 27 -63 59
-138 72 -167 13 -28 24 -56 24 -62 0 -6 11 -34 24 -63 13 -29 36 -82 51 -118
15 -36 40 -94 55 -130 15 -36 36 -85 45 -110 25 -62 55 -132 66 -153 22 -41
68 -171 63 -178 -3 -5 -99 -9 -213 -9 l-209 0 -20 43 c-11 23 -23 57 -27 76
-4 18 -16 49 -27 67 -11 18 -21 39 -22 46 -2 7 -8 26 -14 41 -7 16 -12 33 -12
38 0 6 -152 8 -397 7 l-398 -3 -20 -61 c-11 -34 -26 -69 -34 -78 -7 -9 -11
-16 -8 -16 3 0 -5 -25 -19 -55 -13 -31 -24 -62 -24 -70 0 -8 -9 -19 -19 -25
-24 -13 -418 -14 -425 -1 -4 5 0 22 8 38 26 53 45 98 66 151 11 30 28 68 37
85 9 18 17 37 17 42 1 11 56 146 85 210 11 22 22 56 26 75 4 19 16 47 26 62
11 14 19 30 19 35 0 4 7 21 16 38 20 38 114 267 114 277 0 7 70 173 120 283
10 22 32 74 50 115 67 159 113 266 121 282 5 10 9 25 9 33 0 28 42 34 246 34
l202 1 23 -57z m-10426 -1046 c0 -212 -3 -257 -16 -277 -8 -14 -21 -45 -28
-70 -7 -25 -17 -50 -21 -55 -15 -19 -50 -168 -50 -214 1 -90 69 -175 152 -189
l43 -8 13 -64 c164 -808 532 -1548 1076 -2170 262 -298 520 -528 868 -773 886
-622 1965 -903 3083 -801 684 62 1378 291 1968 650 114 70 376 256 502 357
731 588 1284 1402 1550 2281 50 167 91 326 111 431 9 50 20 94 24 98 8 9 189
11 198 3 14 -14 -109 -517 -173 -711 -85 -253 -193 -505 -323 -745 -48 -91
-97 -178 -107 -195 -47 -77 -66 -106 -125 -195 -67 -101 -303 -418 -342 -460
-12 -14 -45 -51 -71 -82 -112 -133 -299 -319 -488 -483 -294 -257 -656 -497
-1024 -679 -469 -232 -985 -386 -1555 -463 -184 -25 -218 -27 -590 -27 -372 0
-406 2 -590 27 -889 121 -1667 434 -2320 935 -92 71 -222 174 -230 182 -3 3
-59 53 -125 112 -322 285 -616 638 -891 1068 -140 219 -329 612 -428 886 -81
226 -173 575 -221 838 -53 290 -81 608 -58 651 13 24 107 221 154 323 18 39
33 72 33 72 1 0 1 -114 1 -253z m2706 -1726 c26 -32 24 -67 -5 -94 l-24 -23
43 -68 c24 -38 49 -72 56 -77 9 -6 -5 -9 -38 -9 l-53 0 -26 53 c-33 65 -52 87
-76 87 -15 0 -18 -8 -18 -52 0 -56 6 -72 30 -81 8 -3 -19 -6 -60 -6 -56 0 -70
2 -57 10 15 9 17 27 17 144 0 101 -3 135 -12 135 -10 0 -10 2 -2 8 7 4 56 5
109 2 87 -4 99 -8 116 -29z m309 14 c0 -7 3 -20 6 -29 3 -9 1 -16 -5 -16 -6 0
-11 7 -11 15 0 19 -31 35 -69 35 l-31 0 0 -65 0 -65 34 0 c25 0 39 7 50 22 15
22 16 21 16 -27 -1 -44 -2 -48 -14 -32 -8 11 -27 17 -50 17 l-37 0 3 -57 3
-58 45 0 c37 0 47 4 55 23 18 41 32 23 19 -25 -6 -22 -10 -23 -123 -22 -64 0
-109 3 -101 6 27 10 30 26 30 151 0 103 -3 124 -16 129 -32 12 7 18 100 15 72
-3 96 -7 96 -17z m210 -20 l-1 -40 -15 27 c-26 49 -95 49 -102 0 -2 -16 8 -29
39 -49 92 -61 115 -100 93 -158 -11 -29 -61 -46 -125 -43 l-59 3 0 45 1 45 15
-27 c33 -61 124 -66 124 -6 0 10 -25 34 -61 58 -33 23 -65 52 -71 65 -14 31
-3 71 27 101 22 21 33 25 80 22 l55 -3 0 -40z m317 4 c3 -34 3 -34 -13 -11
-12 16 -26 22 -55 22 l-39 0 0 -130 c0 -112 2 -130 18 -139 13 -8 -1 -10 -53
-10 -52 0 -66 2 -52 10 15 9 17 27 17 139 l0 130 -35 0 c-24 0 -39 -6 -47 -20
-17 -26 -25 -25 -22 3 1 12 3 27 3 32 1 6 53 9 139 9 l137 -2 2 -33z m223
-100 c32 -85 62 -146 74 -155 18 -13 13 -14 -54 -14 -54 1 -70 3 -58 10 15 9
15 14 1 55 -15 45 -15 45 -62 45 -47 0 -48 0 -60 -42 -12 -37 -11 -43 5 -55
16 -11 12 -13 -32 -13 -37 1 -45 3 -32 10 16 10 23 26 88 208 27 77 36 92 54
92 18 0 29 -20 76 -141z m203 132 c5 -1 1 -9 -9 -18 -24 -24 -16 -194 11 -223
23 -25 66 -26 96 -1 21 17 24 29 27 109 2 52 -1 98 -7 110 -10 19 -7 20 37 24
26 3 51 1 57 -4 5 -5 4 -8 -3 -8 -9 0 -12 -37 -12 -135 0 -117 2 -135 18 -144
13 -8 5 -10 -35 -11 -46 0 -53 3 -53 20 0 25 -4 25 -40 -1 -23 -17 -38 -21
-75 -17 -83 10 -105 52 -105 201 0 54 -4 87 -11 87 -5 0 -8 4 -5 8 4 6 33 7
109 3z m812 -137 c42 -108 63 -148 79 -154 14 -6 -5 -9 -59 -8 -44 0 -72 2
-62 5 21 6 21 20 2 67 -15 36 -17 37 -62 34 -44 -3 -47 -5 -60 -43 -12 -36
-12 -41 4 -52 14 -11 10 -13 -30 -13 l-46 0 22 24 c12 13 42 83 67 155 39 113
48 131 66 131 18 0 30 -22 79 -146z m307 42 l87 -91 1 83 c0 77 -2 83 -22 91
-20 7 -16 9 20 12 46 5 75 -4 48 -14 -14 -5 -16 -27 -16 -141 0 -74 -4 -137
-9 -140 -5 -3 -55 44 -111 104 -56 61 -106 110 -110 110 -4 0 -7 -43 -6 -96 1
-82 4 -98 20 -110 18 -13 15 -14 -34 -14 -52 0 -54 1 -32 16 20 14 22 23 22
126 0 101 -2 112 -22 129 -11 11 -25 19 -30 19 -5 0 -7 3 -5 8 3 4 29 5 59 3
52 -3 54 -4 140 -95z m440 84 c10 -22 9 -50 -1 -50 -5 0 -11 9 -14 20 -4 16
-14 20 -46 20 l-41 0 0 -130 c0 -112 2 -130 18 -139 13 -8 -1 -10 -53 -10 -52
0 -66 2 -52 10 15 9 17 27 17 139 l0 130 -39 0 c-31 0 -41 -4 -46 -20 -9 -30
-25 -24 -25 8 0 16 2 31 4 33 2 2 64 4 138 4 108 0 134 -3 140 -15z m393 -124
c41 -105 62 -146 78 -154 18 -9 8 -11 -53 -11 -50 -1 -70 2 -60 9 13 8 13 14
0 52 -14 41 -17 43 -61 46 -41 3 -47 0 -57 -23 -16 -34 -15 -72 1 -78 6 -3 -9
-6 -35 -6 l-47 -1 22 23 c12 12 42 80 67 154 39 116 48 133 67 133 18 0 29
-20 78 -144z m440 118 c-12 -12 -15 -43 -15 -150 0 -74 -3 -133 -7 -133 -5 1
-51 47 -103 103 -52 55 -101 105 -107 109 -10 6 -13 -13 -13 -87 0 -87 2 -96
22 -110 22 -15 20 -16 -32 -16 -52 0 -54 1 -32 16 20 14 22 23 22 124 l0 108
-31 26 -31 26 54 0 54 0 88 -90 c49 -49 90 -90 92 -90 7 0 4 137 -2 154 -3 9
-14 17 -23 17 -9 1 2 5 24 8 49 8 60 4 40 -15z m295 -3 c51 -26 82 -84 77
-144 -5 -57 -30 -95 -78 -119 -26 -13 -60 -17 -149 -16 -63 0 -107 2 -98 5 24
6 31 53 26 174 -3 67 -9 104 -16 107 -34 11 8 17 100 14 73 -2 113 -9 138 -21z
m-2205 -6 c32 -31 32 -70 0 -99 l-26 -24 42 -63 c23 -35 49 -70 57 -76 13 -11
7 -13 -36 -13 -51 0 -52 1 -73 43 -34 67 -59 97 -80 97 -17 0 -19 -7 -19 -60
0 -46 4 -61 18 -69 13 -8 -1 -10 -53 -10 -52 0 -66 2 -52 10 15 9 17 27 17
144 0 97 -3 135 -12 138 -7 3 33 6 90 6 96 1 104 -1 127 -24z m-1725 -532 c0
-29 -2 -53 -5 -53 -2 0 -11 15 -20 34 -30 63 -124 74 -157 18 -39 -65 -30
-163 19 -201 33 -27 88 -27 131 -1 38 24 42 13 6 -21 -22 -21 -35 -24 -99 -24
-64 0 -77 3 -100 25 -38 35 -55 73 -55 120 0 44 22 101 46 121 30 24 91 38
161 36 l73 -2 0 -52z m210 7 c9 -25 34 -89 55 -143 27 -70 44 -101 59 -107 14
-6 -2 -9 -54 -9 -50 -1 -70 2 -60 9 13 8 13 14 0 52 -14 42 -17 43 -61 46 -45
3 -47 1 -58 -29 -14 -42 -14 -66 2 -72 6 -3 -9 -6 -35 -6 l-47 -1 22 23 c13
12 40 72 61 132 22 61 43 120 48 133 14 39 47 25 68 -28z m387 8 c3 -33 3 -33
-13 -10 -12 16 -26 22 -55 22 l-39 0 0 -124 c0 -100 3 -128 16 -140 14 -15 9
-16 -53 -16 -51 1 -64 3 -50 11 15 9 17 27 17 139 l0 130 -34 0 c-25 0 -39 -7
-50 -22 -16 -22 -16 -22 -16 12 l0 35 137 -2 138 -2 2 -33z m1357 31 c31 -8
41 -8 47 3 6 8 9 -5 9 -35 l0 -47 -27 30 c-39 44 -103 52 -138 20 -59 -55 -58
-198 1 -237 31 -20 83 -21 95 -2 14 22 11 66 -6 83 -8 8 -15 16 -15 19 0 2 27
4 60 5 33 0 60 -4 60 -9 0 -5 -4 -9 -10 -9 -5 0 -10 -23 -10 -50 0 -45 -3 -52
-26 -60 -46 -18 -155 -12 -192 10 -62 38 -89 123 -63 193 29 75 122 112 215
86z m426 -34 l0 -40 -26 33 c-14 17 -34 32 -44 32 -61 0 -68 -45 -13 -87 74
-56 103 -90 103 -119 -1 -59 -44 -86 -134 -82 l-64 3 3 33 c2 40 11 50 20 22
8 -25 59 -50 87 -42 10 2 24 14 30 25 11 22 10 24 -91 105 -33 26 -41 40 -41
65 0 38 23 75 54 87 11 4 42 7 68 6 l48 -1 0 -40z m1340 -15 l0 -55 -25 42
c-20 33 -33 44 -61 49 -71 13 -113 -30 -115 -117 -2 -60 19 -112 50 -129 33
-17 91 -12 123 11 27 20 30 20 27 4 -10 -50 -145 -73 -207 -35 -87 53 -97 175
-20 247 36 34 67 42 150 40 l78 -2 0 -55z m440 15 l0 -40 -26 33 c-25 31 -46
38 -78 26 -27 -10 -19 -50 15 -76 17 -13 49 -39 70 -59 48 -45 52 -87 14 -125
-23 -23 -32 -25 -97 -22 l-73 3 4 44 3 44 15 -31 c25 -52 99 -63 117 -17 8 23
-1 39 -35 59 -62 37 -99 77 -99 108 0 63 44 97 122 95 l48 -2 0 -40z m-3331 3
c0 -30 -1 -31 -11 -11 -11 24 -49 37 -79 28 -16 -5 -19 -16 -19 -66 l0 -59 32
0 c17 0 40 7 50 17 17 15 18 14 18 -27 0 -41 -1 -42 -18 -27 -10 10 -33 17
-50 17 l-32 0 0 -54 c0 -57 4 -64 42 -71 26 -5 68 19 68 40 0 8 5 15 11 15 6
0 8 -7 5 -16 -3 -9 -6 -24 -6 -35 0 -18 -8 -19 -111 -19 -100 0 -109 1 -95 16
23 23 23 245 0 268 -14 15 -6 16 90 16 l106 0 -1 -32z m259 16 c34 -24 43 -48
31 -83 -6 -16 -19 -33 -29 -36 -17 -5 -15 -10 15 -58 18 -29 43 -64 55 -79
l22 -28 -50 0 c-48 0 -49 1 -68 42 -23 52 -61 98 -80 98 -18 0 -20 -110 -2
-128 9 -9 -2 -12 -52 -12 -49 1 -61 3 -47 11 15 9 17 27 17 139 0 112 -2 130
-17 139 -13 8 9 10 82 11 75 0 106 -4 123 -16z m228 0 c-23 -23 -23 -245 0
-268 14 -15 10 -16 -48 -15 -35 0 -57 3 -50 6 17 7 17 264 0 281 -9 9 2 12 51
12 57 0 61 -1 47 -16z m241 -81 l92 -98 1 82 c0 73 -2 83 -22 97 -22 15 -21
16 25 16 44 0 47 -1 33 -16 -13 -12 -16 -41 -16 -150 0 -74 -2 -134 -6 -134
-3 0 -54 51 -114 113 l-109 112 0 -95 c-1 -97 3 -113 29 -123 8 -3 -12 -5 -45
-6 -45 0 -54 3 -38 9 28 11 35 49 31 160 -3 83 -3 85 -37 107 l-34 23 59 0 59
0 92 -97z m1082 65 c0 -31 -1 -32 -11 -10 -6 12 -16 22 -22 23 -6 0 -20 2 -31
4 -49 10 -52 3 -46 -112 1 -19 70 -17 77 2 11 27 19 16 17 -22 -2 -51 -2 -51
-14 -30 -11 18 -78 25 -80 7 -1 -5 -1 -21 -1 -35 0 -67 2 -73 26 -79 34 -8 75
9 86 36 8 20 9 18 9 -14 l1 -38 -112 1 c-62 0 -107 3 -100 6 9 3 12 42 12 143
0 101 -3 140 -12 143 -7 3 35 6 95 6 l107 1 -1 -32z m265 11 c35 -27 36 -80 2
-106 l-24 -19 46 -70 c25 -38 50 -72 56 -76 6 -4 -13 -8 -41 -8 l-53 0 -26 53
c-31 61 -52 87 -71 87 -18 0 -19 -126 0 -133 6 -3 -17 -6 -53 -6 -37 0 -60 3
-52 7 9 6 13 39 13 113 1 163 1 167 -18 172 -10 3 30 5 88 6 93 1 109 -2 133
-20z m178 12 c-11 -6 -7 -25 21 -91 l34 -83 27 69 c31 82 31 90 9 103 -14 8
-5 10 37 10 37 0 48 -3 35 -8 -14 -6 -34 -46 -71 -147 -29 -76 -55 -138 -60
-137 -8 1 -21 30 -94 205 -18 45 -38 79 -48 81 -9 3 15 5 53 6 42 0 65 -3 57
-8z m316 2 c-16 -4 -18 -19 -18 -137 0 -89 4 -136 12 -144 9 -9 -2 -12 -51
-12 -57 0 -61 1 -47 16 23 23 23 245 0 268 -14 15 -9 16 53 15 37 -1 60 -3 51
-6z m562 -30 l-1 -38 -14 26 c-17 31 -29 37 -70 35 -30 -1 -30 -2 -33 -63 l-3
-63 40 0 c28 0 43 5 50 18 8 13 10 8 11 -26 0 -39 -1 -42 -16 -28 -8 9 -31 16
-50 16 l-34 0 0 -49 c0 -57 21 -86 54 -77 12 3 26 6 33 6 7 0 19 12 27 28 l15
27 1 -37 0 -38 -117 0 c-85 1 -113 3 -100 11 15 9 17 27 17 137 0 86 -4 132
-12 140 -9 9 12 12 95 12 l107 0 0 -37z"/>
<path d="M3015 9199 c-86 -19 -145 -38 -166 -56 -8 -6 -35 -20 -61 -32 -65
-29 -166 -120 -194 -174 -111 -220 -71 -481 93 -599 50 -36 76 -48 118 -53 70
-9 129 2 163 29 42 36 72 48 98 42 79 -20 -61 -193 -185 -231 -70 -21 -171
-17 -241 10 -25 9 -58 19 -74 22 -27 5 -29 4 -22 -23 15 -65 19 -254 6 -316
-15 -74 -88 -232 -140 -303 -176 -238 -433 -343 -694 -283 -47 10 -107 39
-132 63 -6 5 -26 24 -46 41 -126 111 -191 376 -138 566 11 40 20 84 20 97 0
13 11 44 25 68 23 39 30 43 64 43 55 0 68 -19 48 -73 -42 -117 -59 -220 -54
-322 7 -124 17 -158 70 -237 34 -51 55 -70 112 -102 66 -38 75 -40 172 -44
101 -4 101 -4 189 37 251 118 394 342 394 615 0 74 -4 95 -36 169 -63 151
-168 246 -361 328 -95 41 -102 42 -229 46 -122 5 -135 3 -209 -22 -190 -66
-312 -148 -385 -257 -14 -21 -28 -38 -32 -38 -4 0 -31 -39 -61 -87 -57 -93
-102 -213 -120 -322 -21 -122 -9 -340 21 -397 6 -11 22 -44 37 -76 15 -31 45
-77 66 -103 22 -26 39 -50 39 -54 0 -5 27 -35 60 -68 97 -97 190 -155 375
-233 83 -35 215 -53 360 -48 111 4 143 9 222 36 51 17 98 36 105 41 7 6 49 34
93 62 108 70 226 190 326 333 19 27 46 66 62 88 15 21 27 41 27 43 0 3 15 27
33 53 17 26 37 57 44 69 6 11 41 72 76 134 35 63 94 165 130 227 37 62 67 116
67 119 0 3 20 37 43 77 24 39 63 105 87 146 24 41 67 114 97 163 29 48 53 91
53 96 0 6 20 39 45 75 25 37 45 71 45 76 0 6 4 10 8 10 4 0 16 15 27 32 10 18
31 46 46 63 16 16 55 62 88 100 32 39 87 97 122 129 59 56 61 60 43 73 -22 16
-137 53 -166 53 -10 0 -31 6 -46 13 -41 21 -235 64 -340 77 -116 13 -185 11
-287 -11z m433 -140 c13 -5 33 -9 46 -9 12 0 30 -6 39 -12 15 -12 14 -20 -15
-108 -24 -71 -52 -126 -115 -223 -46 -70 -89 -140 -95 -155 -7 -15 -23 -41
-35 -58 -13 -17 -23 -34 -23 -38 0 -4 -9 -19 -19 -32 l-19 -24 -16 25 c-15 23
-15 32 9 137 41 178 93 368 132 476 15 42 16 42 51 36 21 -4 47 -11 60 -15z
m-1513 -669 c86 -23 249 -113 261 -145 3 -8 -1 -88 -10 -177 -9 -90 -19 -234
-22 -321 l-7 -158 -41 -36 c-63 -55 -160 -97 -235 -101 -57 -4 -71 -1 -128 28
-34 18 -63 36 -63 40 0 4 -11 23 -24 42 -13 20 -31 67 -39 104 -18 78 -16 96
33 280 37 137 35 187 -8 235 -47 53 -162 69 -234 32 -66 -33 -89 -76 -124
-228 -24 -106 -26 -132 -21 -264 7 -219 49 -337 160 -454 121 -125 200 -157
402 -164 118 -4 152 -2 220 15 44 11 88 23 98 27 15 6 17 1 17 -43 0 -27 3
-63 6 -80 6 -28 3 -32 -37 -50 -24 -11 -62 -23 -84 -27 -97 -17 -318 0 -375
30 -14 7 -43 18 -65 25 -168 53 -334 200 -445 395 -49 86 -67 207 -50 339 7
56 22 125 32 155 20 60 102 214 127 240 9 9 35 41 57 72 30 40 63 67 123 103
127 75 195 95 326 95 61 1 128 -4 150 -9z"/>
<path d="M5810 8134 c-65 -11 -105 -28 -173 -73 -106 -71 -165 -153 -207 -288
-20 -64 -22 -88 -18 -205 4 -91 10 -142 20 -163 9 -16 24 -48 34 -70 32 -66
127 -160 211 -206 64 -35 92 -44 170 -54 186 -23 331 22 447 139 138 140 186
329 137 533 -23 97 -36 125 -83 188 -60 80 -70 91 -130 129 -99 62 -122 68
-258 71 -69 2 -136 2 -150 -1z"/>
<path d="M7582 8118 c-19 -19 -17 -402 2 -417 10 -8 81 -12 232 -11 306 0 357
14 414 113 33 57 39 119 18 188 -14 48 -82 108 -141 126 -58 17 -508 18 -525
1z"/>
<path d="M13438 7943 c-11 -27 -32 -82 -47 -123 -15 -41 -32 -84 -38 -95 -6
-11 -34 -82 -62 -159 -39 -103 -49 -141 -41 -151 13 -16 411 -20 440 -5 15 8
17 16 11 37 -8 28 -95 255 -131 343 -10 25 -28 70 -40 100 -46 118 -59 126
-92 53z"/>
<path d="M5857 5673 c-4 -3 -7 -33 -7 -65 0 -62 5 -67 53 -49 29 11 41 51 26
85 -13 28 -56 46 -72 29z"/>
<path d="M6932 5571 c-16 -52 -16 -51 18 -51 33 0 36 9 19 59 -14 41 -23 39
-37 -8z"/>
<path d="M7946 5575 c-9 -27 -16 -50 -16 -52 0 -2 16 -3 35 -3 19 0 35 1 35 3
0 1 -8 24 -19 51 l-18 49 -17 -48z"/>
<path d="M9087 5576 c-9 -27 -17 -51 -17 -53 0 -2 16 -3 36 -3 39 0 39 2 10
75 l-12 30 -17 -49z"/>
<path d="M9792 5548 l3 -133 41 -3 c32 -2 48 2 70 21 25 22 29 33 32 93 3 60
1 73 -19 98 -24 30 -74 56 -109 56 -20 0 -20 -4 -18 -132z"/>
<path d="M7600 5615 c0 -59 2 -65 20 -65 25 0 70 42 70 65 0 23 -45 65 -70 65
-18 0 -20 -6 -20 -65z"/>
<path d="M6141 5074 c-7 -21 -15 -45 -17 -51 -4 -9 6 -13 31 -13 40 0 40 2 11
74 l-12 29 -13 -39z"/>
<path d="M6980 5105 c0 -71 12 -82 58 -49 42 29 24 95 -30 108 l-28 6 0 -65z"/>
<path d="M8790 5104 c0 -61 1 -64 24 -64 41 0 71 61 48 98 -5 7 -23 16 -40 21
l-32 10 0 -65z"/>
</g>
</svg>
